<svg version="1.1" id="Layer_1" xmlns="http://www.w3.org/2000/svg" x="0" y="0" viewBox="0 0 557.5 99.1" xml:space="preserve"><style>.st0{fill:#245d38}.st1{fill:#001970}.st2{fill:#fff}</style><path d="M284.1 20.5c1.9 0 3.9.7 5.4 2 .3.3.7.3 1 0l3.1-3.2c.3-.3.3-.8 0-1.1-2.7-2.5-5.6-3.7-9.6-3.7-8 0-14.4 6.4-14.4 14.4S276 43.2 284 43.2c3.5 0 7-1.2 9.7-3.9.3-.3.3-.8 0-1.1l-3.1-3.3c-.2-.3-.8-.3-1 0-1.4 1.2-3.5 1.9-5.3 1.9-4.5 0-7.8-3.7-7.8-8.1-.2-4.4 3.1-8.2 7.6-8.2M319.2 14.5c-8 0-14.3 6.4-14.3 14.4s6.3 14.3 14.3 14.3 14.3-6.3 14.3-14.3c.1-8-6.3-14.4-14.3-14.4m0 22.3c-4.3 0-7.9-3.6-7.9-7.9 0-4.4 3.6-8 7.9-8 4.4 0 8 3.6 8 8 0 4.3-3.6 7.9-8 7.9M362.7 36.9h-9.6V15.7c0-.4-.4-.8-.8-.8h-4.7c-.4 0-.8.4-.8.8V42c0 .4.3.8.8.8h15.1c.4 0 .8-.4.8-.8v-4.3c-.1-.4-.4-.8-.8-.8M388.6 14.5c-8 0-14.3 6.4-14.3 14.4s6.3 14.3 14.3 14.3 14.3-6.3 14.3-14.3c.1-8-6.3-14.4-14.3-14.4m0 22.3c-4.3 0-7.9-3.6-7.9-7.9 0-4.4 3.6-8 7.9-8 4.4 0 8 3.6 8 8 0 4.3-3.6 7.9-8 7.9M432.5 31.5c3.5-1.4 5.9-4.3 5.9-8 0-4.7-3.9-8.6-8.7-8.6h-11.9c-.4 0-.8.4-.8.8V42c0 .4.3.8.8.8h4.7c.4 0 .8-.4.8-.8V31.8h2.7l5.7 10.5c.1.2.3.4.6.4h5.3c.7 0 1-.6.7-1.1l-5.8-10.1zm-3.3-4.7h-5.9v-6.2h5.9c1.6 0 3 1.4 3 3 0 1.7-1.4 3.2-3 3.2M502.5 14.9h-9.7c-.4 0-.7.4-.7.8V42c0 .4.3.8.7.8h9.7c7.7 0 14-6.2 14-14 0-7.7-6.3-13.9-14-13.9m-.4 22h-3.8V20.7h3.8c4.5 0 7.8 3.5 7.8 8 0 4.6-3.3 8.2-7.8 8.2M543.2 14.5c-8 0-14.3 6.4-14.3 14.4s6.3 14.3 14.3 14.3c7.9 0 14.3-6.3 14.3-14.3s-6.4-14.4-14.3-14.4m0 22.3c-4.3 0-7.9-3.6-7.9-7.9 0-4.4 3.6-8 7.9-8 4.4 0 7.9 3.6 7.9 8 0 4.3-3.5 7.9-7.9 7.9M465.8 14.9c-.1-.2-.4-.4-.7-.4h-.4c-.3 0-.6.2-.7.4l-12.4 26.8c-.2.5.1 1 .7 1h4.4c.8 0 1.2-.2 1.4-1l1.4-3.2h10.8l1.4 3.1c.4.9.6 1 1.4 1h4.4c.6 0 .9-.5.7-1l-12.4-26.7zm-4.5 19l3.6-8.3 3.7 8.3h-7.3zM252.2.1h1.3v99h-1.3z"/><g><path d="M269.5 82.3h2.3V68.4h-2.3v-2.7h14.2v4.9h-3v-2.1h-5.4v5.3h6.3v2.8h-6.3V82h5.8v-2.2h3v5h-14.6v-2.5zM286.4 82.3h2v-8c0-.4-.2-.6-.6-.6h-1.5v-2.6h3.6c1.2 0 1.8.6 1.8 1.5v.6c0 .3-.1.6-.1.6h.1c.2-.4 1.6-3.1 5.1-3.1 2.9 0 4.6 1.6 4.6 5.2v6.3h2v2.6H298v-8.2c0-1.7-.5-2.8-2.2-2.8-2.5 0-3.9 2.4-3.9 4.8v3.6h2v2.6h-7.4v-2.5zM311.7 70.8c4 0 6.1 2.9 6.1 6.5 0 .4-.1 1.2-.1 1.2h-9.5c.2 2.5 2.1 3.8 4.1 3.8 2.2 0 4-1.5 4-1.5l1.3 2.4s-2.1 1.9-5.6 1.9c-4.6 0-7.4-3.3-7.4-7.2.1-4.1 2.9-7.1 7.1-7.1zm2.6 5.7c-.1-1.9-1.2-3-2.7-3-1.8 0-3 1.2-3.3 3h6zM319.8 82.3h2v-8c0-.4-.2-.6-.6-.6h-1.5v-2.6h3.6c1.2 0 1.8.5 1.8 1.7v.8c0 .5-.1.9-.1.9h.1c.6-2 2.3-3.5 4.4-3.5.3 0 .6.1.6.1v3.4s-.4-.1-.8-.1c-2.8 0-4 2.4-4 5v3h2V85h-7.4v-2.7zM337.4 87.8c2.1 0 3.9-.9 3.9-3.5v-.9c0-.3.1-.7.1-.7h-.1c-.8 1.2-2 1.9-3.8 1.9-4 0-6.2-3.2-6.2-7s2.1-6.9 6.1-6.9c1.6 0 3.5.6 4.3 2.1h.1s-.1-.2-.1-.5c0-.7.5-1.3 1.6-1.3h3.4v2.6h-1.3c-.4 0-.6.2-.6.5v9.8c0 4.7-3.7 6.5-7.3 6.5-1.7 0-3.6-.5-4.9-1.2l1.1-2.5c-.1.2 1.6 1.1 3.7 1.1zm4-10.1c0-3.1-1.6-4-3.4-4-2.1 0-3.2 1.5-3.2 3.8 0 2.4 1.2 4.2 3.5 4.2 1.5.1 3.1-.9 3.1-4zM351 87.8c1.1 0 2-.6 2.4-1.6l.4-.9-4.7-11.6h-1.6v-2.6h6.8v2.6h-1.6l2.5 7c.2.7.3 1.4.3 1.4h.1s.1-.8.4-1.4l2.5-7h-1.6v-2.6h6.5v2.6h-1.6l-5.1 13c-1.1 2.7-3.1 3.9-5.5 3.9-2 0-3.3-.9-3.3-.9l1.1-2.5c-.1-.1.7.6 2 .6zM380.8 65.4c5.7 0 9.9 4.3 9.9 9.8 0 5.6-4.3 10-9.9 10-5.7 0-9.9-4.4-9.9-10 0-5.5 4.2-9.8 9.9-9.8zm0 16.7c3.5 0 6.3-3 6.3-6.9 0-3.8-2.8-6.7-6.3-6.7s-6.3 2.9-6.3 6.7c0 3.9 2.8 6.9 6.3 6.9zM392.8 82.3h2v-8.6h-2.1v-2.6h2.1v-.6c0-4.5 3.6-5 5.4-5 .8 0 1.4.1 1.4.1v2.8s-.4-.1-1.1-.1c-.8 0-2.3.2-2.3 2.2v.7h6.3v-.6c0-4.5 3.5-5 5.4-5 .8 0 1.4.1 1.4.1v2.8s-.4-.1-1.1-.1c-.8 0-2.3.2-2.3 2.2v.7h9.7v11.2h2v2.6h-7.4v-2.6h2v-8.6h-6.3v8.6h2.3v2.6h-7.7v-2.6h2v-8.6h-6.3v8.6h2.3v2.6h-7.7v-2.8zm21.4-16.6h3.5v3.1h-3.5v-3.1zM428.5 70.8c2.3 0 5.6.9 5.6 3.3V76h-3v-.9c0-.9-1.4-1.3-2.6-1.3-2.5 0-4 1.7-4 4.2 0 2.8 2 4.4 4.3 4.4 1.9 0 3.5-1.1 4.3-1.7l1.2 2.4c-.9.9-3.1 2.1-5.7 2.1-4 0-7.6-2.7-7.6-7.2.1-4.1 3.2-7.2 7.5-7.2zM442.9 70.8c4 0 6.1 2.9 6.1 6.5 0 .4-.1 1.2-.1 1.2h-9.5c.2 2.5 2.1 3.8 4.1 3.8 2.2 0 4-1.5 4-1.5l1.3 2.4s-2.1 1.9-5.6 1.9c-4.6 0-7.4-3.3-7.4-7.2.1-4.1 2.9-7.1 7.1-7.1zm2.6 5.7c-.1-1.9-1.2-3-2.7-3-1.8 0-3 1.2-3.3 3h6z"/></g><g><path class="st0" d="M236.4 51.1v-1.5c0-27.3-22.2-49.5-49.5-49.5s-49.5 22.2-49.5 49.5v1.5l49.5 20.1 49.5-20.1z"/><path class="st1" d="M186.9 74.2l-.5-.2-48.8-19.8c2.3 25.2 23.5 45 49.3 45s47-19.7 49.3-45l-49.3 20z"/><g><path class="st2" d="M175.4 77.4c1.7 0 2.9.5 4 1.5.2.1.2.3 0 .5l-1.3 1.4c-.1.1-.3.1-.4 0-.6-.6-1.4-.9-2.2-.9-1.9 0-3.3 1.6-3.3 3.4 0 1.8 1.4 3.4 3.3 3.4.8 0 1.6-.3 2.2-.8.1-.1.3-.1.4 0l1.3 1.4c.1.1.1.3 0 .4-1.1 1.1-2.6 1.6-4 1.6-3.3 0-6-2.6-6-6s2.7-5.9 6-5.9zM182.5 77.8c0-.2.1-.3.3-.3h6.9c.2 0 .3.1.3.3v1.8c0 .2-.1.3-.3.3h-4.6V82h3.8c.2 0 .3.1.3.3v1.8c0 .2-.1.3-.3.3h-3.8v2.2h4.6c.2 0 .3.1.3.3v1.8c0 .2-.1.3-.3.3h-6.9c-.2 0-.3-.1-.3-.3V77.8zM198.4 77.4c3.3 0 6 2.7 6 6s-2.7 6-6 6-6-2.6-6-6 2.6-6 6-6zm0 9.3c1.8 0 3.3-1.5 3.3-3.3 0-1.8-1.5-3.3-3.3-3.3-1.8 0-3.3 1.5-3.3 3.3 0 1.8 1.5 3.3 3.3 3.3z"/></g><path class="st2" d="M182 9.7c-.1-.1-.2-.2-.3-.1-.1 0-.2.2-.2.3l2.9 19.8-6.5-2.4h-.3c-.1.1-.1.2-.1.3l3.8 15.6-6.3-2.4c-.1 0-.2 0-.3.1-.1.1-.1.2 0 .3l14 23.8c0 .1.1.1.2.1h.1c.1 0 .2-.2.2-.3l-2-13.9 6.5 2.4h.3c.1-.1.1-.2.1-.3l-3.8-15.6 6.3 2.4c.1 0 .2 0 .3-.1.1-.1.1-.2 0-.3L182 9.7z"/></g><g><path class="st0" d="M43.5 80.6c-1.5-1.9-2.9-3.9-4.1-6-.1-.1-.2-.2-.2-.3-.9-1.7-1.8-3.3-2.5-5.1-.2-.5-.4-1-.6-1.6-2.6-6.6-3.7-13.5-3.4-20.6.4-7.8 2.6-15 6.4-21.8 0-.1.1-.2.1-.3 1.1-1.7 2.1-3.4 3.3-5-.6-1-1.1-2-1.8-3.2-3.9-7-5.9-10.3-9.8-16.8C27 6.5 25 9.9 21.1 17c-3.9 6.9-5.9 10.4-9.7 17.8 3.2-.8 4.8-1.2 8-1.6-.8 2-1.2 3-2 5.1C12.7 47.5 8.3 57 4.1 66.4c3.3-1.2 4.9-1.7 8.3-2.5C8 74.1 4 84.3 0 94.6c21.7-7.5 39.4-7.6 61.1-.2-4.5-2.1-8.6-4.9-12.5-8.4-1.9-1.6-3.6-3.5-5.1-5.4z"/><path d="M82.2 25.7c-7.2 0-13.9 3.2-18.5 8.7l-.1.1c-3.5 4.3-5.5 9.7-5.5 15.3v.7l14.6-12.7 10 8.7 10-8.7 13.7 11.9c0-3.2-.6-6.2-1.9-9.1-3.8-9.1-12.5-14.9-22.3-14.9z" fill="#ffd100"/><path d="M39 25.3c-3.8 6.7-6 14-6.4 21.8-.3 7.1.8 14 3.4 20.6.2.5.4 1.1.6 1.6l18.9-16.5c0-.3-.1-.7-.1-1 0-.6-.1-1.2-.1-1.9 0-6.2 2.2-12.3 6.1-17.1l.1-.1c5.1-6.1 12.6-9.6 20.6-9.6 10.9 0 20.6 6.5 24.8 16.5 6.7-2.7 13.3-5.4 20-8.1.4-.2.6-.3.3-.8-.8-1.9-1.8-3.8-2.7-5.6-.1-.2-.2-.3-.3-.4-9-14.5-22-22.5-39-24.1-4.9-.4-9.7 0-14.5 1.1-11.3 2.7-20.6 8.5-27.8 17.6-.2.3-.4.5-.6.8-1.2 1.6-2.3 3.3-3.3 5 .1 0 0 .1 0 .2z" fill="#c3002f"/><path d="M72.7 37.7L58.1 50.5c0 .4 0 .7.1 1 .3 3.8 1.4 7.5 3.4 10.7.4.7.8 1.2 1.1 1.6l20-17.5-10-8.6z" fill="#7a853b"/><path d="M59.2 63.8c-2-3.4-3.3-7.2-3.7-11L36.6 69.2c.8 1.7 1.6 3.4 2.5 5.1.1.1.2.2.2.3 1.2 2.1 2.6 4.1 4.1 6l.7-.6 16.4-14.3-.1-.1c-.3-.5-.7-1.1-1.2-1.8z" fill="#6d3a5d"/><path class="st1" d="M126.8 67.8c-6.5-2.7-13.1-5.3-19.6-7.9-.7 1.8-1.7 3.6-2.8 5.2-5 7.3-13.3 11.6-22.1 11.6-8.5 0-16.6-4.1-21.7-11L44.2 80l-.7.6c1.5 1.9 3.2 3.7 5.1 5.4 3.9 3.5 8.1 6.3 12.5 8.4 6 2.8 12.5 4.3 19.5 4.6 5.1.2 10.1-.5 15-1.9 9.6-2.8 17.6-8.1 24.1-15.7.4-.5.8-1 1.3-1.5 1.3-1.7 2.5-3.6 3.7-5.5 1-1.7 1.9-3.5 2.6-5.3.1-.2.1-.3.2-.4l.1-.2-.1-.2c-.2-.3-.4-.3-.7-.5z"/><path d="M82.7 46.4l19.2 16.7.3.2c1-1.4 1.8-3 2.4-4.5 1.2-2.9 1.8-5.9 1.8-9v-.2L92.7 37.7l-10 8.7z" fill="#35647e"/><path class="st1" d="M82.7 46.4l-20 17.5s0 .1.1.1c4.5 6.2 11.8 9.9 19.5 9.9 7.9 0 15.3-3.9 19.8-10.4l.1-.1-.3-.2-19.2-16.8z"/><g><path d="M111.4 93.9h-1.1c-.1 0-.1-.1-.1-.1v-.6c0-.1.1-.1.1-.1h3c.1 0 .1.1.1.1v.6c0 .1-.1.1-.1.1h-1.1v3.9c0 .1-.1.1-.1.1h-.6c-.1 0-.1-.1-.1-.1v-3.9zM115.3 93.1c0-.1 0-.1.1-.1h.1c.1 0 .1 0 .1.1l1.5 3.3 1.5-3.3.1-.1h.1c.1 0 .1 0 .1.1l.8 4.7c0 .1 0 .2-.1.2h-.6c-.1 0-.1-.1-.1-.1l-.4-2.6-1.2 2.7-.1.1h-.1c-.1 0-.1 0-.1-.1l-1.2-2.7-.4 2.6-.1.1h-.6c-.1 0-.1-.1-.1-.2l.7-4.7z"/></g></g></svg>